<svg xmlns="http://www.w3.org/2000/svg" viewBox="0 0 401.15 65.24"><defs><style>.a,.b{fill:#d9232e;}.a{fill-rule:evenodd;}</style></defs><title>microstrategy-logo_red</title><path class="a" d="M185.12,43.79l5.8-1.12-4.85-1.07,2.54-3.07-4.43,1.18L185,35.33l-3.08,2-1.42-5.68-1.25,6.51-3.78-2.9,1.24,3.9-3.55-.64,3,3.25-5.09,1,5.15,1.12-2.07,2.31,3.19-.23-1.48,4.36,3.55-3.6,1,5.8,1.12-5.8,2.72,2.9L184,46l3.91,1.37Zm-2-1.54a2.4,2.4,0,1,1-2.41-2.4A2.41,2.41,0,0,1,183.14,42.25Z" transform="translate(-116.94 -31.67)"/><path class="b" d="M514,55.18h0.89c0.6,0,.73.29,0.73,0.6s-0.13.57-.73,0.6H514v-1.2Zm0.77,1.66a0.74,0.74,0,0,1,.58.18,1.52,1.52,0,0,1,.23.86,7.1,7.1,0,0,0,.14.71h0.57a5.56,5.56,0,0,1-.24-1.16,0.73,0.73,0,0,0-.59-0.79h0a0.93,0.93,0,0,0,.73-0.94,1.08,1.08,0,0,0-1.32-1h-1.38v3.88H514V56.85h0.75Z" transform="translate(-116.94 -31.67)"/><path class="b" d="M517.51,56.65a2.8,2.8,0,1,1-2.8-2.8A2.8,2.8,0,0,1,517.51,56.65Zm-2.8-3.36a3.36,3.36,0,1,0,3.37,3.36A3.36,3.36,0,0,0,514.71,53.29Z" transform="translate(-116.94 -31.67)"/><path class="b" d="M151.28,41.18L146.56,57.6a47.25,47.25,0,0,0-1.05,5.55h-0.39l-5.77-22H123.71L116.94,83h14.7l1.77-17.86c0.17-1.66.28-3.38,0.39-5h0.5a28.65,28.65,0,0,0,.95,5.22L140.68,83h8.88l6-18.75a36.08,36.08,0,0,0,1-4.16h0.27L158.93,83h14.7l-6.87-41.82H151.28Z" transform="translate(-116.94 -31.67)"/><path class="b" d="M188,63.81V53.55H173.68V83H188V73.24c1.89,6.78,7.89,10.43,15.73,10.43a23.72,23.72,0,0,0,7.21-1.39l0.61-12.09c-1.66,1.17-3.33,2.27-5.54,2.27a4.3,4.3,0,1,1,.28-8.6,8.33,8.33,0,0,1,5.27,2.44V54.38a29.3,29.3,0,0,0-9-1.5A14.81,14.81,0,0,0,188,63.81Z" transform="translate(-116.94 -31.67)"/><path class="b" d="M495.89,53l-5.11,11.54-1.43,4.49H489l-0.12-4.49L487.4,53H458.86l-0.28,4.21h-0.39a8.05,8.05,0,0,0-7.83-4.88c-7.13,0-12.47,6.15-14.48,12.59-0.75-7.6-7.1-12.07-15.62-12.07a19.89,19.89,0,0,0-16.13,7.87l1.11-7-4.8.22L402,44.06H387.59L386,53.94l-3-.19,0-.15H369l-0.1,3.5h-0.34c-1.65-2.89-4.39-4.16-7.94-4.16-7,0-12.11,5.65-14.32,11.84l1.84-11.62c-4.8-.11-7.54.72-10.71,4.6h-0.33l1-3.94H323.75l-4.88.2,1.56-9.87H306L304.45,54,301,53.8l-1.42,9c-1.46-2.94-4.53-4.66-8.46-5.57l-3.31-.78c-1.12-.28-3-0.5-2.73-2.05,0.28-1.72,2.29-2.22,3.63-2.22A13.6,13.6,0,0,1,297,55.3l5.8-10.71a22,22,0,0,0-12.68-3.66c-9.1,0-19,5.55-20.59,15.48-1,6.55,3.4,10,9.17,11.09l3,0.56c1.34,0.28,3.31.44,3,2.33s-2.78,2.5-4.28,2.5a13.57,13.57,0,0,1-8.88-3.83s-0.31-.29-0.84-0.84c-0.23-10-8.27-15.33-17.84-15.33-6.33,0-12,2.33-15.16,6.79V52.88c-4.82-.11-7.43.72-10,4.6h-0.33l0.33-3.94H213.4V83h14.31V71.69c0-3.66,1.89-5.88,5.6-5.88a5.57,5.57,0,0,1,1.88.33,17.85,17.85,0,0,0-.19,2.5c0,9.76,8.66,15,17.86,15a20.84,20.84,0,0,0,11.63-3.33,33.9,33.9,0,0,0,15.32,3.75c9,0,18.92-4.94,20.5-14.92a12.07,12.07,0,0,0,0-4.19l2.47-.19-2.9,18.3h14.42l2.9-18.3,4.8,0.29-2.88,18.19H333.4l1.79-11.32c0.58-3.66,2.81-5.88,6.53-5.88a6.23,6.23,0,0,1,3.82,1.41c-0.07.33-.14,0.66-0.19,1-1.13,7.15,2,15.25,10,15.25,4,0,6.66-1.77,9.71-4.55h0.33L364.34,83h14l2.87-18.11,3.08-.24L381.42,83h14.42l2.9-18.3,3.15,0.18a18.75,18.75,0,0,0-1,3.87c-1.6,10.15,6.12,14.92,15.39,14.92,6.77,0,15.22-3.27,18.23-10.37H420.53a3.56,3.56,0,0,1-3.27,2.44c-3,0-3-2.66-2.58-5H435c0,6.38,3.45,12.46,10.42,12.46,3.38,0,7.47-1.66,9.42-4.88h0.39l-0.75,3c-0.91,3.66-3.69,6.49-7.57,6.49a14.43,14.43,0,0,1-9.75-3.6l-4.74,9.93,1.37,0.5a32.16,32.16,0,0,0,12.28,2.33c10.26,0,20.43-4.66,22.25-16.14l4.14-26.16,7.89,24.94-10,15.09h15.08L510.92,53h-15ZM253.51,72.6a4,4,0,0,1-4-4,4,4,0,1,1,8,0A4,4,0,0,1,253.51,72.6Zm113.65-4.53c-0.36,2.27-1.81,4.44-4.53,4.44s-3.4-2-3-4.32a4.61,4.61,0,0,1,4.36-4C366.23,64.13,367.52,65.79,367.16,68.07Zm55.4-3.54,0,0.17H415.4l0-.24a4.39,4.39,0,0,1,3.28-3.93,3.92,3.92,0,0,1,.75-0.07,3,3,0,0,1,2.33,1A3.73,3.73,0,0,1,422.56,64.53ZM457,67.81c-0.35,2.22-1.82,4.1-4.26,4.1s-3.76-1.77-3.39-4.16A4.85,4.85,0,0,1,454,63.54C456.36,63.54,457.36,65.59,457,67.81Z" transform="translate(-116.94 -31.67)"/></svg>